<?xml version="1.0" encoding="utf-8"?>
<!DOCTYPE svg PUBLIC "-//W3C//DTD SVG 1.1//EN" "http://www.w3.org/Graphics/SVG/1.1/DTD/svg11.dtd">
<svg xmlns="http://www.w3.org/2000/svg" xmlns:xlink="http://www.w3.org/1999/xlink" version="1.1" baseProfile="full" width="821.137" height="401.175" viewBox="0 0 821.14 401.18" enable-background="new 0 0 821.14 401.18" xml:space="preserve">
	<g>
		<path fill="#DE1562" fill-opacity="1" stroke-width="0.2" stroke-linejoin="round" d="M 49.6986,314.802C 59.949,314.802 68.2587,323.112 68.2587,333.362C 68.2587,343.612 59.9491,351.922 49.6986,351.922C 39.4481,351.922 31.1385,343.612 31.1385,333.362C 31.1385,323.112 39.4482,314.802 49.6986,314.802 Z "/>
		<path fill="#DE1562" fill-opacity="1" stroke-width="0.2" stroke-linejoin="round" d="M 67.7664,290.832C 71.5994,294.798 81.3103,303.308 91.017,311.415C 105.417,323.788 110.752,328.11 123.124,336.588C 128.001,340.066 132.912,343.288 137.899,346.307C 163.914,367.225 196.97,379.743 232.951,379.743C 243.903,379.743 254.585,378.583 264.88,376.379C 261.138,379.096 256.646,381.895 250.154,384.913C 239.77,389.74 224.269,395.126 207.479,398.219C 190.688,401.312 172.609,402.112 155.41,400.912C 138.211,399.712 121.892,396.512 107.093,392.672C 92.2935,388.833 79.0142,384.353 64.0542,377.419C 52.1869,371.919 39.2622,364.875 30.2855,359.404C 47.2925,365.317 64.0116,363.283 73.5775,352.489C 86.8412,337.522 63.9335,286.866 67.7664,290.832 Z "/>
	</g>
	<g>
		<path fill="#FEB036" fill-opacity="1" stroke-width="0.2" stroke-linejoin="round" d="M 45.9998,152.24C 52.9243,159.798 52.4115,171.538 44.8539,178.463C 37.2963,185.388 25.5559,184.875 18.6311,177.317C 11.7063,169.759 12.2192,158.019 19.7769,151.094C 27.3345,144.169 39.075,144.682 45.9998,152.24 Z "/>
		<path fill="#FEB036" fill-opacity="1" stroke-width="0.2" stroke-linejoin="round" d="M 75.8789,149.368C 75.5439,154.873 75.8296,167.782 76.41,180.415C 77.0154,199.392 77.4333,206.244 79.5398,221.094C 80.0125,224.937 80.573,228.717 81.2192,232.454C 82.6698,282.185 108.039,325.917 146.223,352.544C 141.628,351.622 136.463,350.2 129.727,347.4C 119.154,343.005 104.71,335.214 91.0869,324.924C 77.4634,314.635 64.6602,301.845 53.9258,288.354C 43.1914,274.862 34.5259,260.668 27.3593,247.163C 20.1924,233.657 14.5244,220.84 9.53003,205.126C 5.56812,192.661 2.03015,178.372 0,168.057C 7.12939,184.592 19.9238,195.544 34.3451,195.305C 54.3402,194.974 76.2139,143.862 75.8789,149.368 Z "/>
	</g>
	<g>
		<path fill="#1F7FB5" fill-opacity="1" stroke-width="0.2" stroke-linejoin="round" d="M 160.204,38.2482C 159.422,48.4686 150.503,56.1207 140.283,55.3392C 130.062,54.5577 122.41,45.6388 123.192,35.4182C 123.973,25.1976 132.892,17.5457 143.113,18.3271C 153.333,19.1086 160.985,28.0277 160.204,38.2482 Z "/>
		<path fill="#1F7FB5" fill-opacity="1" stroke-width="0.2" stroke-linejoin="round" d="M 182.727,58.0916C 178.48,61.611 169.254,70.6448 160.431,79.7051C 146.996,93.1199 142.281,98.1099 132.883,109.799C 128.484,115.068 124.416,120.406 120.596,125.872C 96.0898,152.83 81.1536,188.644 81.1536,227.946C 81.1536,234.839 81.613,241.625 82.5029,248.275C 80.0458,244.303 77.564,239.573 75.0146,232.775C 70.9939,222.054 66.8051,206.187 65.001,189.21C 63.1971,172.233 63.7777,154.146 66.2854,137.088C 68.793,120.031 73.2278,104.003 78.1846,89.5393C 83.1416,75.0758 88.6206,62.1768 96.6743,47.7889C 103.063,36.3755 111.072,24.0254 117.212,15.4919C 110.019,31.9987 110.773,48.8241 120.806,59.1852C 134.718,73.5511 186.974,54.5721 182.727,58.0916 Z "/>
	</g>
	<g>
		<path fill="#F55B2D" fill-opacity="1" stroke-width="0.2" stroke-linejoin="round" d="M 316.228,56.219C 308.177,62.564 296.507,61.1813 290.162,53.1307C 283.817,45.0802 285.2,33.4102 293.25,27.0652C 301.301,20.7202 312.971,22.1029 319.316,30.1536C 325.661,38.2041 324.278,49.8741 316.228,56.219 Z "/>
		<path fill="#F55B2D" fill-opacity="1" stroke-width="0.2" stroke-linejoin="round" d="M 121.367,116.063C 126.535,105.844 135.375,92.019 146.647,79.1969C 157.92,66.3745 171.624,54.5553 185.874,44.8516C 200.125,35.1477 214.923,27.5593 228.923,21.4144C 242.923,15.2695 256.126,10.5681 272.167,6.7533C 284.892,3.72717 299.403,1.25916 309.84,0.00012207C 292.823,5.88293 268.235,22.0229 268.594,44.9696C 271.143,66.7019 306.404,85.9066 328.343,109.861C 302.276,88.7769 269.088,76.1489 232.951,76.1489C 185.28,76.1489 142.741,98.1234 114.912,132.496C 116.177,127.889 117.986,122.748 121.367,116.063 Z "/>
	</g>
	<g>
		<path fill="#779933" fill-opacity="1" stroke-width="0.2" stroke-linejoin="round" d="M 49.6986,314.802C 59.949,314.802 68.2587,323.112 68.2587,333.362C 68.2587,343.612 59.9491,351.922 49.6986,351.922C 39.4481,351.922 31.1385,343.612 31.1385,333.362C 31.1385,323.112 39.4482,314.802 49.6986,314.802 Z "/>
		<path fill="#779933" fill-opacity="1" stroke-width="0.2" stroke-linejoin="round" d="M 67.7664,290.832C 71.5994,294.798 81.3103,303.308 91.017,311.415C 105.417,323.788 110.752,328.11 123.124,336.588C 128.001,340.066 132.912,343.288 137.899,346.307C 163.914,367.225 196.97,379.743 232.951,379.743C 243.903,379.743 254.585,378.583 264.88,376.379C 261.138,379.096 256.646,381.895 250.154,384.913C 239.77,389.74 224.269,395.126 207.479,398.219C 190.688,401.312 172.609,402.112 155.41,400.912C 138.211,399.712 121.892,396.512 107.093,392.672C 92.2935,388.833 79.0142,384.353 64.0542,377.419C 52.1869,371.919 39.2622,364.875 30.2855,359.404C 47.2925,365.317 64.0116,363.283 73.5775,352.489C 86.8412,337.522 63.9335,286.866 67.7664,290.832 Z "/>
	</g>
	<g>
		<path fill="#DCD427" fill-opacity="1" stroke-width="0.2" stroke-linejoin="round" d="M 45.9998,152.24C 52.9243,159.798 52.4115,171.538 44.8539,178.463C 37.2963,185.388 25.5559,184.875 18.6311,177.317C 11.7063,169.759 12.2192,158.019 19.7769,151.094C 27.3345,144.169 39.075,144.682 45.9998,152.24 Z "/>
		<path fill="#DCD427" fill-opacity="1" stroke-width="0.2" stroke-linejoin="round" d="M 75.8789,149.368C 75.5439,154.873 75.8296,167.782 76.41,180.415C 77.0154,199.392 77.4333,206.244 79.5398,221.094C 80.0125,224.937 80.573,228.717 81.2192,232.454C 82.6698,282.185 108.039,325.917 146.223,352.544C 141.628,351.622 136.463,350.2 129.727,347.4C 119.154,343.005 104.71,335.214 91.0869,324.924C 77.4634,314.635 64.6602,301.845 53.9258,288.354C 43.1914,274.862 34.5259,260.668 27.3593,247.163C 20.1924,233.657 14.5244,220.84 9.53003,205.126C 5.56812,192.661 2.03015,178.372 0,168.057C 7.12939,184.592 19.9238,195.544 34.3451,195.305C 54.3402,194.974 76.2139,143.862 75.8789,149.368 Z "/>
	</g>
	<g>
		<path fill="#FF3333" fill-opacity="1" stroke-width="0.2" stroke-linejoin="round" d="M 160.204,38.2482C 159.422,48.4686 150.503,56.1207 140.283,55.3392C 130.062,54.5577 122.41,45.6388 123.192,35.4182C 123.973,25.1976 132.892,17.5457 143.113,18.3271C 153.333,19.1086 160.985,28.0277 160.204,38.2482 Z "/>
		<path fill="#FF3333" fill-opacity="1" stroke-width="0.2" stroke-linejoin="round" d="M 182.727,58.0916C 178.48,61.611 169.254,70.6448 160.431,79.7051C 146.996,93.1199 142.281,98.1099 132.883,109.799C 128.484,115.068 124.416,120.406 120.596,125.872C 96.0898,152.83 81.1536,188.644 81.1536,227.946C 81.1536,234.839 81.613,241.625 82.5029,248.275C 80.0458,244.303 77.564,239.573 75.0146,232.775C 70.9939,222.054 66.8051,206.187 65.001,189.21C 63.1971,172.233 63.7777,154.146 66.2854,137.088C 68.793,120.031 73.2278,104.003 78.1846,89.5393C 83.1416,75.0758 88.6206,62.1768 96.6743,47.7889C 103.063,36.3755 111.072,24.0254 117.212,15.4919C 110.019,31.9987 110.773,48.8241 120.806,59.1852C 134.718,73.5511 186.974,54.5721 182.727,58.0916 Z "/>
	</g>
	<g>
		<path fill="#0092CC" fill-opacity="1" stroke-width="0.2" stroke-linejoin="round" d="M 316.228,56.219C 308.177,62.564 296.507,61.1813 290.162,53.1307C 283.817,45.0802 285.2,33.4102 293.25,27.0652C 301.301,20.7202 312.971,22.1029 319.316,30.1536C 325.661,38.2041 324.278,49.8741 316.228,56.219 Z "/>
		<path fill="#0092CC" fill-opacity="1" stroke-width="0.2" stroke-linejoin="round" d="M 121.367,116.063C 126.535,105.844 135.375,92.019 146.647,79.1969C 157.92,66.3745 171.624,54.5553 185.874,44.8516C 200.125,35.1477 214.923,27.5593 228.923,21.4144C 242.923,15.2695 256.126,10.5681 272.167,6.7533C 284.892,3.72717 299.403,1.25916 309.84,0.00012207C 292.823,5.88293 268.235,22.0229 268.594,44.9696C 271.143,66.7019 306.404,85.9066 328.343,109.861C 302.276,88.7769 269.088,76.1489 232.951,76.1489C 185.28,76.1489 142.741,98.1234 114.912,132.496C 116.177,127.889 117.986,122.748 121.367,116.063 Z "/>
	</g>
	<path fill="#FFFFFF" fill-opacity="1" stroke-width="0.2" stroke-linejoin="round" d="M 232.27,204.902C 232.978,206.396 233.895,207.74 234.598,208.656C 235.073,209.275 235.45,209.699 235.752,209.974C 234.89,216.178 234.558,222.648 234.492,228.459C 234.451,231.975 234.508,235.25 234.627,238.403C 233.296,238.417 231.968,238.407 230.648,238.304C 228.851,238.163 227.071,237.85 225.056,237.21C 223.041,236.569 220.791,235.601 218.839,234.601C 216.886,233.602 215.23,232.571 214.184,231.93L 212.262,230.79C 213.848,232.633 215.433,234.476 217.038,235.945C 218.643,237.413 220.268,238.507 221.88,239.337C 223.492,240.168 225.093,240.737 226.905,241.174C 228.717,241.612 230.74,241.918 232.362,242.056L 234.798,242.157L 235.179,248.267C 235.616,254.547 236.158,260.857 236.699,267.168C 236.096,267.043 235.491,266.918 232.69,266.075C 229.889,265.231 224.89,263.669 220.391,261.326C 215.893,258.983 211.894,255.859 209.207,252.641C 206.52,249.423 205.146,246.111 204.458,242.237C 203.771,238.363 203.771,233.927 204.458,229.428C 205.146,224.93 206.52,220.368 209.207,214.526C 211.894,208.684 215.893,201.561 221.141,193.875C 226.39,186.19 232.888,177.943 239.152,170.663C 245.416,163.384 251.446,157.073 254.82,153.746C 258.194,150.419 258.912,150.075 259.928,153.303C 260.943,156.531 262.255,163.331 263.005,172.448C 263.755,181.565 263.942,192.999 263.364,204.789C 262.786,216.579 261.442,228.724 259.708,241.155C 257.974,253.586 255.849,266.301 254.6,278.329C 253.35,290.357 252.975,301.698 252.6,313.038L 252.559,336.492L 292.629,336.492L 292.629,280.563L 375.95,280.562C 379.852,270.002 382.799,258.89 384.27,247.374L 315.031,247.371L 292.541,247.371L 292.541,118.881L 248.114,118.881L 148.591,248.655L 149.468,254.537C 150.769,263.263 152.07,271.99 156.679,276.353C 161.288,280.716 169.206,280.716 177.123,280.716L 245.561,280.716C 245.215,274.048 244.656,268.297 243.903,262.412L 242.426,251.578L 243.004,250.837C 243.644,249.994 244.394,248.932 245.283,247.53C 246.173,246.129 247.203,244.39 248.092,242.8C 248.98,241.21 249.727,239.77 250.228,238.531C 250.728,237.292 250.982,236.254 251.236,235.216L 249.494,237.56L 247.026,240.902L 243.988,245.221L 241.955,247.992C 241.645,245.533 241.361,243.044 241.133,240.522C 240.77,236.511 240.546,232.413 240.454,228.531L 241.093,227.855C 241.842,226.97 242.759,225.616 244.383,223.325C 246.008,221.034 248.341,217.806 249.83,215.525C 251.319,213.245 251.965,211.912 252.428,210.855C 252.891,209.798 253.173,209.016 253.3,208.552C 253.428,208.087 253.402,207.939 253.149,208.26C 252.897,208.582 252.418,209.373 251.491,210.519C 250.564,211.664 249.189,213.164 247.711,214.924C 246.232,216.684 244.649,218.704 243.295,220.391L 240.406,223.909L 240.51,218.929C 240.76,212.774 241.448,208.338 242.51,203.246C 243.572,198.153 245.009,192.405 246.259,187.594L 249.297,175.995C 250.023,173.082 250.414,171.129 250.804,169.177C 248.102,174.222 245.4,179.268 242.861,185.165C 240.323,191.061 237.949,197.809 236.512,205.339L 236.401,205.93C 235.768,205.027 235.139,204.058 234.52,202.84C 233.676,201.179 232.854,199.055 232.156,197.149L 230.313,191.869C 230.281,193.233 230.25,194.598 230.292,195.972C 230.333,197.347 230.448,198.732 230.755,200.247C 231.062,201.762 231.562,203.407 232.27,204.902 Z "/>
	<g>
		<path fill="#FFFFFF" fill-opacity="1" stroke-width="0.2" stroke-linejoin="round" d="M 339.454,204.948C 339.454,205.571 339.427,206.103 339.375,206.542C 339.323,206.982 339.244,207.336 339.139,207.605C 339.034,207.874 338.904,208.073 338.75,208.201C 338.596,208.329 338.424,208.393 338.233,208.393L 328.114,208.393L 328.114,239.882C 328.114,240.085 328.047,240.267 327.912,240.428C 327.778,240.589 327.555,240.72 327.243,240.822C 326.931,240.923 326.513,241.004 325.988,241.063C 325.463,241.122 324.807,241.151 324.019,241.151C 323.232,241.151 322.576,241.122 322.051,241.063C 321.526,241.004 321.107,240.923 320.796,240.822C 320.484,240.72 320.261,240.589 320.126,240.428C 319.992,240.267 319.925,240.085 319.925,239.882L 319.925,208.393L 309.806,208.393C 309.596,208.393 309.418,208.329 309.274,208.201C 309.13,208.073 309.005,207.874 308.9,207.605C 308.795,207.336 308.716,206.982 308.664,206.542C 308.611,206.103 308.585,205.571 308.585,204.948C 308.585,204.298 308.611,203.748 308.664,203.299C 308.716,202.849 308.795,202.49 308.9,202.221C 309.005,201.952 309.13,201.758 309.274,201.64C 309.418,201.522 309.596,201.463 309.806,201.463L 338.233,201.463C 338.424,201.463 338.596,201.522 338.75,201.64C 338.904,201.758 339.034,201.952 339.139,202.221C 339.244,202.49 339.323,202.849 339.375,203.299C 339.427,203.748 339.454,204.298 339.454,204.948 Z "/>
		<path fill="#FFFFFF" fill-opacity="1" stroke-width="0.2" stroke-linejoin="round" d="M 375.362,239.872C 375.362,240.075 375.295,240.259 375.161,240.423C 375.026,240.587 374.803,240.718 374.491,240.817C 374.179,240.915 373.764,240.995 373.246,241.058C 372.728,241.12 372.075,241.151 371.287,241.151C 370.474,241.151 369.802,241.122 369.274,241.063C 368.746,241.004 368.331,240.923 368.029,240.822C 367.727,240.72 367.509,240.589 367.374,240.428C 367.24,240.267 367.173,240.088 367.173,239.891L 367.173,224.142L 352.683,224.142L 352.683,239.891C 352.683,240.088 352.621,240.267 352.496,240.428C 352.371,240.589 352.153,240.72 351.842,240.822C 351.53,240.923 351.115,241.004 350.596,241.063C 350.078,241.122 349.415,241.151 348.608,241.151C 347.814,241.151 347.153,241.12 346.625,241.058C 346.096,240.995 345.677,240.915 345.365,240.817C 345.053,240.718 344.83,240.587 344.695,240.423C 344.561,240.259 344.494,240.075 344.494,239.872L 344.494,202.743C 344.494,202.539 344.561,202.355 344.695,202.191C 344.83,202.027 345.053,201.896 345.365,201.798C 345.677,201.699 346.096,201.619 346.625,201.557C 347.153,201.494 347.814,201.463 348.608,201.463C 349.415,201.463 350.078,201.494 350.596,201.557C 351.115,201.619 351.53,201.701 351.842,201.803C 352.153,201.904 352.371,202.036 352.496,202.196C 352.621,202.357 352.683,202.539 352.683,202.743L 352.683,217.212L 367.173,217.212L 367.173,202.743C 367.173,202.539 367.24,202.357 367.374,202.196C 367.509,202.036 367.727,201.904 368.029,201.803C 368.331,201.701 368.746,201.619 369.274,201.557C 369.802,201.494 370.474,201.463 371.287,201.463C 372.075,201.463 372.728,201.494 373.246,201.557C 373.764,201.619 374.179,201.699 374.491,201.798C 374.803,201.896 375.026,202.027 375.161,202.191C 375.295,202.355 375.362,202.539 375.362,202.743L 375.362,239.872 Z "/>
	</g>
	<path fill="#FFFFFF" fill-opacity="1" stroke-width="0.2" stroke-linejoin="round" d="M 388.715,229.342C 388.715,301.443 333.79,362.31 264.74,376.471C 331.782,360.722 384.748,299.841 384.748,227.979C 384.748,181.277 361.46,137.67 328.297,109.818C 363.742,137.208 388.715,181.576 388.715,229.342 Z "/>
	<g>
		<path fill="#FFFFFF" fill-opacity="1" stroke-width="0.2" stroke-linejoin="round" d="M 473.317,273.136C 473.808,274.569 474.112,275.706 474.228,276.546C 474.344,277.385 474.18,278.015 473.734,278.435C 473.288,278.855 472.5,279.113 471.37,279.21C 470.24,279.307 468.687,279.355 466.71,279.355C 464.657,279.355 463.055,279.326 461.906,279.268C 460.756,279.21 459.878,279.09 459.271,278.91C 458.663,278.729 458.24,278.477 458.001,278.154C 457.763,277.831 457.559,277.411 457.391,276.895L 452.509,261.995L 422.632,261.995L 418.002,276.488C 417.847,277.043 417.637,277.511 417.372,277.892C 417.107,278.273 416.681,278.574 416.093,278.793C 415.506,279.013 414.679,279.161 413.613,279.239C 412.548,279.316 411.149,279.355 409.419,279.355C 407.559,279.355 406.105,279.294 405.059,279.171C 404.013,279.048 403.286,278.761 402.88,278.309C 402.473,277.857 402.331,277.211 402.453,276.371C 402.576,275.532 402.876,274.415 403.354,273.02L 427.244,204.354C 427.489,203.67 427.773,203.118 428.096,202.698C 428.419,202.278 428.932,201.958 429.636,201.739C 430.34,201.519 431.319,201.38 432.572,201.322C 433.825,201.264 435.478,201.235 437.532,201.235C 439.921,201.235 441.82,201.264 443.228,201.322C 444.636,201.38 445.734,201.519 446.522,201.739C 447.31,201.958 447.875,202.288 448.217,202.727C 448.559,203.166 448.853,203.767 449.099,204.529L 473.317,273.136 Z M 437.357,215.786L 437.299,215.786L 426.565,249.595L 448.459,249.595L 437.357,215.786 Z "/>
		<path fill="#FFFFFF" fill-opacity="1" stroke-width="0.2" stroke-linejoin="round" d="M 518.112,276.236C 517.906,276.92 517.644,277.473 517.328,277.892C 517.011,278.312 516.491,278.632 515.768,278.851C 515.045,279.071 514.06,279.21 512.813,279.268C 511.567,279.326 509.943,279.355 507.94,279.355C 506.326,279.355 504.947,279.345 503.804,279.326C 502.661,279.307 501.689,279.258 500.888,279.181C 500.087,279.103 499.435,278.984 498.931,278.822C 498.427,278.661 498.004,278.461 497.662,278.222C 497.32,277.983 497.058,277.692 496.877,277.35C 496.697,277.008 496.529,276.578 496.374,276.061L 473.317,207.454C 472.827,206.021 472.533,204.884 472.436,204.045C 472.339,203.205 472.542,202.575 473.046,202.155C 473.55,201.736 474.412,201.477 475.633,201.38C 476.853,201.284 478.562,201.235 480.757,201.235C 482.63,201.235 484.096,201.274 485.156,201.351C 486.215,201.429 487.032,201.568 487.606,201.768C 488.181,201.968 488.578,202.268 488.798,202.669C 489.018,203.069 489.231,203.567 489.437,204.161L 507.979,263.855L 508.037,263.855L 526.637,204.471C 526.805,203.786 527.012,203.234 527.257,202.814C 527.503,202.394 527.919,202.065 528.507,201.826C 529.095,201.587 529.941,201.429 531.045,201.351C 532.15,201.274 533.658,201.235 535.569,201.235C 537.455,201.235 538.918,201.297 539.958,201.419C 540.997,201.542 541.711,201.833 542.099,202.291C 542.486,202.75 542.609,203.396 542.467,204.229C 542.325,205.062 542.008,206.176 541.517,207.571L 518.112,276.236 Z "/>
		<path fill="#FFFFFF" fill-opacity="1" stroke-width="0.2" stroke-linejoin="round" d="M 597.937,273.155C 597.937,274.318 597.889,275.29 597.792,276.071C 597.695,276.853 597.547,277.485 597.347,277.97C 597.146,278.454 596.894,278.806 596.591,279.026C 596.287,279.245 595.961,279.355 595.612,279.355L 556.727,279.355C 555.409,279.355 554.302,278.961 553.404,278.173C 552.506,277.385 552.057,276.107 552.057,274.337L 552.057,206.253C 552.057,204.484 552.509,203.205 553.414,202.417C 554.318,201.629 555.429,201.235 556.746,201.235L 595.651,201.235C 596.013,201.235 596.333,201.335 596.61,201.536C 596.888,201.736 597.127,202.088 597.327,202.591C 597.527,203.095 597.679,203.738 597.782,204.519C 597.886,205.301 597.937,206.292 597.937,207.493C 597.937,208.617 597.889,209.57 597.792,210.351C 597.695,211.133 597.547,211.766 597.347,212.25C 597.146,212.734 596.907,213.086 596.63,213.306C 596.352,213.525 596.032,213.635 595.671,213.635L 568.177,213.635L 568.177,232.235L 590.73,232.235C 591.079,232.235 591.395,232.348 591.679,232.574C 591.964,232.8 592.203,233.149 592.396,233.62C 592.59,234.092 592.735,234.728 592.832,235.529C 592.929,236.33 592.977,237.311 592.977,238.474C 592.977,239.662 592.929,240.647 592.832,241.429C 592.735,242.21 592.59,242.837 592.396,243.308C 592.203,243.779 591.964,244.119 591.679,244.325C 591.395,244.532 591.079,244.635 590.73,244.635L 568.177,244.635L 568.177,266.955L 595.632,266.955C 595.994,266.955 596.32,267.065 596.61,267.285C 596.901,267.504 597.146,267.856 597.347,268.34C 597.547,268.825 597.695,269.458 597.792,270.239C 597.889,271.021 597.937,271.993 597.937,273.155 Z "/>
		<path fill="#FFFFFF" fill-opacity="1" stroke-width="0.2" stroke-linejoin="round" d="M 677.297,273.698C 677.297,274.628 677.133,275.451 676.803,276.168C 676.474,276.885 676.031,277.485 675.476,277.97C 674.921,278.454 674.259,278.806 673.49,279.026C 672.722,279.245 671.95,279.355 671.175,279.355L 664.239,279.355C 662.792,279.355 661.542,279.21 660.489,278.919C 659.437,278.629 658.468,278.099 657.583,277.33C 656.698,276.562 655.843,275.525 655.016,274.221C 654.19,272.916 653.298,271.263 652.342,269.261L 633.936,232.003C 632.864,229.781 631.776,227.388 630.672,224.824C 629.567,222.26 628.576,219.771 627.697,217.355L 627.562,217.355C 627.652,220.3 627.697,223.235 627.697,226.161C 627.697,229.087 627.697,232.099 627.697,235.199L 627.697,276.72C 627.697,277.133 627.581,277.502 627.349,277.824C 627.116,278.147 626.719,278.422 626.157,278.648C 625.595,278.874 624.833,279.048 623.871,279.171C 622.908,279.294 621.672,279.355 620.161,279.355C 618.701,279.355 617.49,279.294 616.528,279.171C 615.565,279.048 614.81,278.877 614.261,278.658C 613.712,278.438 613.334,278.17 613.127,277.854C 612.921,277.537 612.817,277.179 612.817,276.778L 612.817,206.893C 612.817,205.007 613.392,203.592 614.542,202.65C 615.691,201.707 617.106,201.235 618.785,201.235L 627.62,201.235C 629.209,201.235 630.549,201.364 631.64,201.623C 632.732,201.881 633.704,202.31 634.556,202.911C 635.409,203.512 636.213,204.345 636.968,205.411C 637.724,206.476 638.464,207.765 639.187,209.276L 653.544,237.447C 654.383,239.152 655.213,240.828 656.033,242.475C 656.854,244.122 657.641,245.769 658.397,247.415C 659.153,249.062 659.892,250.68 660.615,252.269C 661.339,253.858 662.043,255.446 662.727,257.035L 662.786,257.035C 662.669,254.271 662.579,251.387 662.514,248.384C 662.45,245.381 662.417,242.51 662.417,239.772L 662.417,203.793C 662.417,203.392 662.543,203.034 662.795,202.717C 663.047,202.401 663.467,202.123 664.055,201.884C 664.642,201.645 665.417,201.477 666.38,201.38C 667.342,201.284 668.572,201.235 670.07,201.235C 671.504,201.235 672.702,201.287 673.665,201.39C 674.627,201.494 675.37,201.665 675.893,201.904C 676.416,202.143 676.781,202.42 676.987,202.737C 677.194,203.053 677.297,203.412 677.297,203.812L 677.297,273.698 Z "/>
		<path fill="#FFFFFF" fill-opacity="1" stroke-width="0.2" stroke-linejoin="round" d="M 759.137,250.312C 759.137,255.065 758.427,259.321 757.006,263.08C 755.585,266.839 753.489,270.016 750.719,272.613C 747.948,275.209 744.532,277.188 740.47,278.551C 736.407,279.914 731.728,280.595 726.432,280.595C 721.472,280.595 717.019,279.985 713.073,278.764C 709.127,277.544 705.795,275.693 703.076,273.213C 700.357,270.733 698.274,267.643 696.827,263.942C 695.381,260.242 694.657,255.918 694.657,250.971L 694.657,203.754C 694.657,203.354 694.78,202.995 695.026,202.679C 695.271,202.362 695.71,202.104 696.343,201.904C 696.976,201.703 697.803,201.542 698.823,201.419C 699.843,201.297 701.154,201.235 702.756,201.235C 704.306,201.235 705.591,201.293 706.612,201.41C 707.632,201.526 708.449,201.684 709.063,201.884C 709.676,202.084 710.115,202.343 710.38,202.659C 710.645,202.976 710.777,203.334 710.777,203.734L 710.777,249.091C 710.777,252.14 711.158,254.781 711.921,257.016C 712.682,259.25 713.78,261.101 715.214,262.567C 716.648,264.033 718.359,265.131 720.349,265.86C 722.338,266.59 724.559,266.955 727.014,266.955C 729.506,266.955 731.741,266.581 733.717,265.831C 735.693,265.082 737.366,263.984 738.735,262.538C 740.105,261.091 741.161,259.308 741.903,257.19C 742.646,255.072 743.017,252.669 743.017,249.983L 743.017,203.734C 743.017,203.334 743.14,202.976 743.385,202.659C 743.631,202.343 744.064,202.084 744.684,201.884C 745.304,201.684 746.143,201.526 747.202,201.41C 748.261,201.293 749.572,201.235 751.135,201.235C 752.711,201.235 754.006,201.297 755.02,201.419C 756.034,201.542 756.851,201.703 757.471,201.904C 758.091,202.104 758.524,202.362 758.769,202.679C 759.015,202.995 759.137,203.354 759.137,203.754L 759.137,250.312 Z "/>
		<path fill="#FFFFFF" fill-opacity="1" stroke-width="0.2" stroke-linejoin="round" d="M 821.137,273.155C 821.137,274.318 821.089,275.29 820.992,276.071C 820.895,276.853 820.747,277.485 820.547,277.97C 820.346,278.454 820.094,278.806 819.791,279.026C 819.487,279.245 819.161,279.355 818.813,279.355L 779.927,279.355C 778.609,279.355 777.502,278.961 776.604,278.173C 775.706,277.385 775.257,276.107 775.257,274.337L 775.257,206.253C 775.257,204.484 775.71,203.205 776.614,202.417C 777.518,201.629 778.629,201.235 779.946,201.235L 818.851,201.235C 819.213,201.235 819.533,201.335 819.81,201.536C 820.088,201.736 820.327,202.088 820.527,202.591C 820.727,203.095 820.879,203.738 820.983,204.519C 821.086,205.301 821.137,206.292 821.137,207.493C 821.137,208.617 821.089,209.57 820.992,210.351C 820.895,211.133 820.747,211.766 820.547,212.25C 820.346,212.734 820.107,213.086 819.83,213.306C 819.552,213.525 819.232,213.635 818.871,213.635L 791.378,213.635L 791.378,232.235L 813.93,232.235C 814.279,232.235 814.595,232.348 814.879,232.574C 815.163,232.8 815.402,233.149 815.596,233.62C 815.79,234.092 815.935,234.728 816.032,235.529C 816.129,236.33 816.177,237.311 816.177,238.474C 816.177,239.662 816.129,240.647 816.032,241.429C 815.935,242.21 815.79,242.837 815.596,243.308C 815.402,243.779 815.163,244.119 814.879,244.325C 814.595,244.532 814.279,244.635 813.93,244.635L 791.378,244.635L 791.378,266.955L 818.832,266.955C 819.193,266.955 819.52,267.065 819.81,267.285C 820.101,267.504 820.346,267.856 820.547,268.34C 820.747,268.825 820.895,269.458 820.992,270.239C 821.089,271.021 821.137,271.993 821.137,273.155 Z "/>
	</g>
</svg>
