<?xml version="1.0" encoding="utf-8"?>
<!DOCTYPE svg PUBLIC "-//W3C//DTD SVG 1.1//EN" "http://www.w3.org/Graphics/SVG/1.1/DTD/svg11.dtd">
<svg xmlns="http://www.w3.org/2000/svg" xmlns:xlink="http://www.w3.org/1999/xlink" version="1.1" baseProfile="full" width="388.715" height="401.175" viewBox="0 0 388.71 401.18" enable-background="new 0 0 388.71 401.18" xml:space="preserve">
	<g>
		<path fill="#DE1562" fill-opacity="1" stroke-width="0.2" stroke-linejoin="round" d="M 49.6985,314.802C 59.9489,314.802 68.2585,323.112 68.2585,333.362C 68.2585,343.612 59.949,351.922 49.6985,351.922C 39.448,351.922 31.1384,343.612 31.1384,333.362C 31.1384,323.112 39.4482,314.802 49.6985,314.802 Z "/>
		<path fill="#DE1562" fill-opacity="1" stroke-width="0.2" stroke-linejoin="round" d="M 67.7664,290.832C 71.5994,294.798 81.3103,303.308 91.0171,311.415C 105.417,323.788 110.752,328.11 123.124,336.589C 128.001,340.066 132.912,343.288 137.899,346.307C 163.914,367.225 196.97,379.743 232.951,379.743C 243.903,379.743 254.585,378.583 264.88,376.379C 261.138,379.096 256.646,381.895 250.153,384.913C 239.77,389.74 224.269,395.126 207.479,398.219C 190.689,401.312 172.609,402.112 155.41,400.912C 138.211,399.712 121.892,396.512 107.093,392.672C 92.2935,388.833 79.0142,384.353 64.0542,377.419C 52.187,371.919 39.2622,364.875 30.2856,359.404C 47.2925,365.317 64.0115,363.283 73.5776,352.489C 86.8413,337.522 63.9333,286.866 67.7664,290.832 Z "/>
	</g>
	<g>
		<path fill="#FEB036" fill-opacity="1" stroke-width="0.2" stroke-linejoin="round" d="M 45.9996,152.24C 52.9243,159.798 52.4114,171.538 44.8538,178.463C 37.2961,185.388 25.5558,184.875 18.631,177.317C 11.7062,169.759 12.2191,158.019 19.7769,151.094C 27.3345,144.169 39.0748,144.682 45.9996,152.24 Z "/>
		<path fill="#FEB036" fill-opacity="1" stroke-width="0.2" stroke-linejoin="round" d="M 75.879,149.368C 75.5441,154.873 75.8296,167.782 76.4099,180.416C 77.0154,199.392 77.4333,206.245 79.5398,221.094C 80.0125,224.937 80.573,228.718 81.2192,232.454C 82.6697,282.185 108.039,325.917 146.223,352.545C 141.628,351.622 136.463,350.2 129.727,347.4C 119.153,343.005 104.71,335.214 91.087,324.925C 77.4634,314.635 64.6603,301.846 53.9259,288.354C 43.1915,274.862 34.5259,260.668 27.3591,247.163C 20.1925,233.657 14.5244,220.84 9.53003,205.126C 5.56812,192.661 2.03015,178.373 0,168.057C 7.12939,184.592 19.924,195.545 34.3452,195.306C 54.3403,194.974 76.214,143.862 75.879,149.368 Z "/>
	</g>
	<g>
		<path fill="#1F7FB5" fill-opacity="1" stroke-width="0.2" stroke-linejoin="round" d="M 160.204,38.2484C 159.422,48.4686 150.503,56.121 140.283,55.3392C 130.062,54.558 122.41,45.639 123.192,35.4183C 123.973,25.1976 132.892,17.5458 143.113,18.3273C 153.333,19.1088 160.985,28.0277 160.204,38.2484 Z "/>
		<path fill="#1F7FB5" fill-opacity="1" stroke-width="0.2" stroke-linejoin="round" d="M 182.727,58.0917C 178.48,61.6112 169.254,70.6449 160.431,79.7052C 146.996,93.12 142.28,98.11 132.883,109.799C 128.484,115.068 124.416,120.406 120.596,125.872C 96.09,152.83 81.1534,188.644 81.1534,227.946C 81.1534,234.839 81.613,241.625 82.5031,248.275C 80.0457,244.303 77.564,239.573 75.0148,232.776C 70.9939,222.054 66.8052,206.187 65.0011,189.21C 63.197,172.233 63.7778,154.146 66.2853,137.088C 68.7931,120.031 73.2277,104.003 78.1847,89.5394C 83.1417,75.076 88.6206,62.1769 96.6743,47.7889C 103.063,36.3756 111.072,24.0255 117.212,15.4921C 110.019,31.9989 110.773,48.8243 120.806,59.1854C 134.718,73.5511 186.974,54.5721 182.727,58.0917 Z "/>
	</g>
	<g>
		<path fill="#F55B2D" fill-opacity="1" stroke-width="0.2" stroke-linejoin="round" d="M 316.228,56.2191C 308.177,62.5641 296.507,61.1815 290.162,53.1307C 283.817,45.0802 285.2,33.4103 293.25,27.0653C 301.301,20.7203 312.971,22.1029 319.316,30.1537C 325.661,38.2042 324.278,49.8744 316.228,56.2191 Z "/>
		<path fill="#F55B2D" fill-opacity="1" stroke-width="0.2" stroke-linejoin="round" d="M 121.367,116.063C 126.535,105.845 135.375,92.0192 146.648,79.1971C 157.92,66.3746 171.624,54.5555 185.875,44.8517C 200.125,35.1478 214.923,27.5594 228.923,21.4144C 242.923,15.2697 256.126,10.5682 272.167,6.7533C 284.892,3.72742 299.403,1.25916 309.84,0.00012207C 292.823,5.88318 268.234,22.0231 268.594,44.9696C 271.143,66.702 306.404,85.9066 328.343,109.861C 302.276,88.777 269.088,76.149 232.951,76.149C 185.28,76.149 142.741,98.1234 114.912,132.496C 116.177,127.889 117.986,122.748 121.367,116.063 Z "/>
	</g>
	<g>
		<path fill="#779933" fill-opacity="1" stroke-width="0.2" stroke-linejoin="round" d="M 49.6985,314.802C 59.9489,314.802 68.2585,323.112 68.2585,333.362C 68.2585,343.612 59.949,351.922 49.6985,351.922C 39.448,351.922 31.1384,343.612 31.1384,333.362C 31.1384,323.112 39.4482,314.802 49.6985,314.802 Z "/>
		<path fill="#779933" fill-opacity="1" stroke-width="0.2" stroke-linejoin="round" d="M 67.7664,290.832C 71.5994,294.798 81.3103,303.308 91.0171,311.415C 105.417,323.788 110.752,328.11 123.124,336.589C 128.001,340.066 132.912,343.288 137.899,346.307C 163.914,367.225 196.97,379.743 232.951,379.743C 243.903,379.743 254.585,378.583 264.88,376.379C 261.138,379.096 256.646,381.895 250.153,384.913C 239.77,389.74 224.269,395.126 207.479,398.219C 190.689,401.312 172.609,402.112 155.41,400.912C 138.211,399.712 121.892,396.512 107.093,392.672C 92.2935,388.833 79.0142,384.353 64.0542,377.419C 52.187,371.919 39.2622,364.875 30.2856,359.404C 47.2925,365.317 64.0115,363.283 73.5776,352.489C 86.8413,337.522 63.9333,286.866 67.7664,290.832 Z "/>
	</g>
	<g>
		<path fill="#DCD427" fill-opacity="1" stroke-width="0.2" stroke-linejoin="round" d="M 45.9996,152.24C 52.9243,159.798 52.4114,171.538 44.8538,178.463C 37.2961,185.388 25.5558,184.875 18.631,177.317C 11.7062,169.759 12.2191,158.019 19.7769,151.094C 27.3345,144.169 39.0748,144.682 45.9996,152.24 Z "/>
		<path fill="#DCD427" fill-opacity="1" stroke-width="0.2" stroke-linejoin="round" d="M 75.879,149.368C 75.5441,154.873 75.8296,167.782 76.4099,180.416C 77.0154,199.392 77.4333,206.245 79.5398,221.094C 80.0125,224.937 80.573,228.718 81.2192,232.454C 82.6697,282.185 108.039,325.917 146.223,352.545C 141.628,351.622 136.463,350.2 129.727,347.4C 119.153,343.005 104.71,335.214 91.087,324.925C 77.4634,314.635 64.6603,301.846 53.9259,288.354C 43.1915,274.862 34.5259,260.668 27.3591,247.163C 20.1925,233.657 14.5244,220.84 9.53003,205.126C 5.56812,192.661 2.03015,178.373 0,168.057C 7.12939,184.592 19.924,195.545 34.3452,195.306C 54.3403,194.974 76.214,143.862 75.879,149.368 Z "/>
	</g>
	<g>
		<path fill="#FF3333" fill-opacity="1" stroke-width="0.2" stroke-linejoin="round" d="M 160.204,38.2484C 159.422,48.4686 150.503,56.121 140.283,55.3392C 130.062,54.558 122.41,45.639 123.192,35.4183C 123.973,25.1976 132.892,17.5458 143.113,18.3273C 153.333,19.1088 160.985,28.0277 160.204,38.2484 Z "/>
		<path fill="#FF3333" fill-opacity="1" stroke-width="0.2" stroke-linejoin="round" d="M 182.727,58.0917C 178.48,61.6112 169.254,70.6449 160.431,79.7052C 146.996,93.12 142.28,98.11 132.883,109.799C 128.484,115.068 124.416,120.406 120.596,125.872C 96.09,152.83 81.1534,188.644 81.1534,227.946C 81.1534,234.839 81.613,241.625 82.5031,248.275C 80.0457,244.303 77.564,239.573 75.0148,232.776C 70.9939,222.054 66.8052,206.187 65.0011,189.21C 63.197,172.233 63.7778,154.146 66.2853,137.088C 68.7931,120.031 73.2277,104.003 78.1847,89.5394C 83.1417,75.076 88.6206,62.1769 96.6743,47.7889C 103.063,36.3756 111.072,24.0255 117.212,15.4921C 110.019,31.9989 110.773,48.8243 120.806,59.1854C 134.718,73.5511 186.974,54.5721 182.727,58.0917 Z "/>
	</g>
	<g>
		<path fill="#0092CC" fill-opacity="1" stroke-width="0.2" stroke-linejoin="round" d="M 316.228,56.2191C 308.177,62.5641 296.507,61.1815 290.162,53.1307C 283.817,45.0802 285.2,33.4103 293.25,27.0653C 301.301,20.7203 312.971,22.1029 319.316,30.1537C 325.661,38.2042 324.278,49.8744 316.228,56.2191 Z "/>
		<path fill="#0092CC" fill-opacity="1" stroke-width="0.2" stroke-linejoin="round" d="M 121.367,116.063C 126.535,105.845 135.375,92.0192 146.648,79.1971C 157.92,66.3746 171.624,54.5555 185.875,44.8517C 200.125,35.1478 214.923,27.5594 228.923,21.4144C 242.923,15.2697 256.126,10.5682 272.167,6.7533C 284.892,3.72742 299.403,1.25916 309.84,0.00012207C 292.823,5.88318 268.234,22.0231 268.594,44.9696C 271.143,66.702 306.404,85.9066 328.343,109.861C 302.276,88.777 269.088,76.149 232.951,76.149C 185.28,76.149 142.741,98.1234 114.912,132.496C 116.177,127.889 117.986,122.748 121.367,116.063 Z "/>
	</g>
	<path fill="#FFFFFF" fill-opacity="1" stroke-width="0.2" stroke-linejoin="round" d="M 232.27,204.902C 232.978,206.396 233.895,207.74 234.597,208.656C 235.072,209.275 235.45,209.699 235.752,209.974C 234.89,216.178 234.558,222.648 234.491,228.459C 234.451,231.975 234.508,235.249 234.627,238.403C 233.296,238.417 231.968,238.407 230.648,238.304C 228.851,238.163 227.071,237.85 225.055,237.21C 223.041,236.569 220.791,235.601 218.839,234.601C 216.886,233.602 215.23,232.571 214.184,231.93L 212.262,230.79C 213.848,232.633 215.433,234.476 217.038,235.945C 218.643,237.413 220.268,238.507 221.88,239.337C 223.492,240.168 225.093,240.737 226.905,241.174C 228.717,241.612 230.74,241.918 232.361,242.056L 234.798,242.157L 235.179,248.267C 235.616,254.547 236.158,260.857 236.699,267.168C 236.095,267.043 235.491,266.918 232.69,266.075C 229.889,265.231 224.89,263.669 220.391,261.326C 215.893,258.983 211.894,255.859 209.207,252.641C 206.52,249.423 205.146,246.111 204.458,242.237C 203.771,238.363 203.771,233.927 204.458,229.428C 205.146,224.93 206.52,220.368 209.207,214.526C 211.894,208.684 215.893,201.561 221.141,193.875C 226.39,186.19 232.888,177.943 239.152,170.663C 245.416,163.384 251.446,157.073 254.82,153.746C 258.194,150.419 258.912,150.075 259.928,153.303C 260.943,156.531 262.255,163.331 263.005,172.448C 263.755,181.565 263.942,192.998 263.364,204.788C 262.786,216.578 261.442,228.724 259.708,241.155C 257.974,253.586 255.849,266.301 254.6,278.329C 253.35,290.357 252.975,301.698 252.6,313.038L 252.559,336.492L 292.629,336.492L 292.629,280.563L 375.95,280.562C 379.852,270.002 382.799,258.89 384.27,247.374L 315.031,247.371L 292.541,247.371L 292.541,118.881L 248.114,118.881L 148.591,248.655L 149.468,254.536C 150.769,263.263 152.07,271.99 156.679,276.353C 161.288,280.716 169.206,280.716 177.123,280.716L 245.561,280.716C 245.215,274.048 244.656,268.297 243.903,262.411L 242.426,251.578L 243.004,250.837C 243.644,249.994 244.394,248.932 245.283,247.53C 246.173,246.129 247.203,244.39 248.092,242.8C 248.98,241.21 249.727,239.77 250.228,238.531C 250.728,237.292 250.982,236.254 251.236,235.216L 249.494,237.56L 247.026,240.902L 243.988,245.221L 241.955,247.992C 241.645,245.533 241.361,243.044 241.133,240.522C 240.77,236.511 240.546,232.413 240.454,228.531L 241.093,227.855C 241.842,226.97 242.759,225.616 244.383,223.325C 246.008,221.034 248.341,217.806 249.83,215.525C 251.319,213.245 251.965,211.911 252.428,210.855C 252.891,209.798 253.173,209.016 253.3,208.552C 253.428,208.087 253.402,207.939 253.149,208.26C 252.897,208.582 252.418,209.373 251.491,210.519C 250.564,211.664 249.189,213.164 247.711,214.924C 246.232,216.684 244.649,218.704 243.295,220.391L 240.405,223.909L 240.51,218.929C 240.76,212.774 241.448,208.338 242.51,203.245C 243.572,198.153 245.009,192.405 246.259,187.594L 249.297,175.995C 250.023,173.082 250.414,171.129 250.804,169.177C 248.102,174.222 245.4,179.268 242.861,185.164C 240.323,191.061 237.949,197.809 236.511,205.339L 236.401,205.93C 235.768,205.027 235.138,204.058 234.52,202.84C 233.676,201.179 232.854,199.055 232.156,197.149L 230.313,191.869C 230.281,193.233 230.25,194.598 230.292,195.972C 230.333,197.347 230.448,198.732 230.755,200.247C 231.062,201.762 231.562,203.407 232.27,204.902 Z "/>
	<path fill="#FFFFFF" fill-opacity="1" stroke-width="0.2" stroke-linejoin="round" d="M 388.715,229.342C 388.715,301.443 333.79,362.31 264.74,376.471C 331.781,360.722 384.748,299.841 384.748,227.979C 384.748,181.277 361.46,137.67 328.297,109.818C 363.742,137.208 388.715,181.576 388.715,229.342 Z "/>
</svg>
