<?xml version="1.0" encoding="utf-8"?>
<!DOCTYPE svg PUBLIC "-//W3C//DTD SVG 1.1//EN" "http://www.w3.org/Graphics/SVG/1.1/DTD/svg11.dtd">
<svg xmlns="http://www.w3.org/2000/svg" xmlns:xlink="http://www.w3.org/1999/xlink" version="1.1" baseProfile="full" width="388.715" height="401.175" viewBox="0 0 388.71 401.18" enable-background="new 0 0 388.71 401.18" xml:space="preserve">
	<g>
		<path fill="#DE1562" fill-opacity="1" stroke-width="0.2" stroke-linejoin="round" d="M 49.6982,314.803C 59.9485,314.803 68.2583,323.112 68.2583,333.363C 68.2583,343.613 59.9487,351.923 49.6982,351.923C 39.4478,351.923 31.1382,343.613 31.1382,333.363C 31.1382,323.112 39.4479,314.803 49.6982,314.803 Z "/>
		<path fill="#DE1562" fill-opacity="1" stroke-width="0.2" stroke-linejoin="round" d="M 67.7662,290.832C 71.5992,294.798 81.3102,303.309 91.0168,311.415C 105.417,323.788 110.752,328.11 123.124,336.588C 128.001,340.066 132.912,343.288 137.899,346.307C 163.914,367.225 196.97,379.743 232.95,379.743C 243.903,379.743 254.585,378.583 264.88,376.379C 261.138,379.096 256.646,381.895 250.153,384.913C 239.77,389.74 224.269,395.126 207.479,398.219C 190.688,401.312 172.609,402.112 155.41,400.912C 138.211,399.712 121.892,396.512 107.093,392.672C 92.2935,388.833 79.0142,384.353 64.0542,377.419C 52.1868,371.919 39.2622,364.875 30.2854,359.404C 47.2925,365.317 64.0115,363.283 73.5774,352.489C 86.8411,337.522 63.9333,286.866 67.7662,290.832 Z "/>
	</g>
	<g>
		<path fill="#FEB036" fill-opacity="1" stroke-width="0.2" stroke-linejoin="round" d="M 45.9996,152.239C 52.9243,159.797 52.4114,171.538 44.8538,178.462C 37.2961,185.387 25.5558,184.874 18.631,177.316C 11.7062,169.759 12.2191,158.018 19.7769,151.093C 27.3345,144.169 39.0748,144.682 45.9996,152.239 Z "/>
		<path fill="#FEB036" fill-opacity="1" stroke-width="0.2" stroke-linejoin="round" d="M 75.8789,149.368C 75.5439,154.873 75.8296,167.782 76.4099,180.416C 77.0153,199.392 77.4332,206.244 79.5397,221.094C 80.0123,224.937 80.5729,228.717 81.2192,232.454C 82.6697,282.185 108.039,325.917 146.223,352.544C 141.628,351.622 136.463,350.2 129.727,347.4C 119.153,343.005 104.71,335.214 91.0869,324.924C 77.4634,314.634 64.6602,301.845 53.9258,288.354C 43.1914,274.862 34.5259,260.668 27.3591,247.163C 20.1924,233.657 14.5244,220.84 9.52991,205.126C 5.56799,192.661 2.03003,178.373 0,168.058C 7.12939,184.592 19.9238,195.544 34.345,195.305C 54.3401,194.974 76.2139,143.862 75.8789,149.368 Z "/>
	</g>
	<g>
		<path fill="#1F7FB5" fill-opacity="1" stroke-width="0.2" stroke-linejoin="round" d="M 160.204,38.2489C 159.422,48.4693 150.503,56.1215 140.283,55.3399C 130.062,54.5585 122.41,45.6396 123.192,35.419C 123.973,25.1983 132.892,17.5464 143.113,18.3278C 153.333,19.1093 160.985,28.0284 160.204,38.2489 Z "/>
		<path fill="#1F7FB5" fill-opacity="1" stroke-width="0.2" stroke-linejoin="round" d="M 182.727,58.0915C 178.48,61.611 169.254,70.6449 160.431,79.7051C 146.996,93.1198 142.28,98.1099 132.883,109.799C 128.484,115.068 124.416,120.406 120.596,125.872C 96.0898,152.83 81.1534,188.644 81.1534,227.946C 81.1534,234.839 81.6129,241.625 82.5029,248.275C 80.0457,244.303 77.564,239.573 75.0146,232.775C 70.9938,222.054 66.8049,206.187 65.001,189.21C 63.197,172.233 63.7776,154.146 66.2853,137.088C 68.793,120.031 73.2277,104.003 78.1846,89.5392C 83.1416,75.0758 88.6206,62.1768 96.6743,47.789C 103.063,36.3755 111.072,24.0254 117.212,15.4921C 110.019,31.9987 110.773,48.8242 120.806,59.1852C 134.718,73.5512 186.974,54.5722 182.727,58.0915 Z "/>
	</g>
	<g>
		<path fill="#F55B2D" fill-opacity="1" stroke-width="0.2" stroke-linejoin="round" d="M 316.228,56.2204C 308.177,62.5653 296.507,61.1826 290.162,53.132C 283.817,45.0815 285.2,33.4115 293.25,27.0666C 301.301,20.7216 312.971,22.1042 319.316,30.1548C 325.661,38.2055 324.278,49.8755 316.228,56.2204 Z "/>
		<path fill="#F55B2D" fill-opacity="1" stroke-width="0.2" stroke-linejoin="round" d="M 121.367,116.063C 126.534,105.845 135.375,92.0191 146.647,79.1969C 157.92,66.3745 171.624,54.5553 185.874,44.8516C 200.125,35.1479 214.923,27.5592 228.923,21.4145C 242.923,15.2696 256.126,10.568 272.167,6.75333C 284.892,3.7272 299.403,1.25919 309.84,3.05176e-005C 292.823,5.88297 268.234,22.023 268.594,44.9696C 271.143,66.7018 306.404,85.9066 328.343,109.861C 302.276,88.7769 269.088,76.149 232.95,76.149C 185.28,76.149 142.741,98.1234 114.912,132.496C 116.177,127.889 117.986,122.748 121.367,116.063 Z "/>
	</g>
	<g>
		<path fill="#476088" fill-opacity="1" stroke-width="0.2" stroke-linejoin="round" d="M 49.6982,314.803C 59.9485,314.803 68.2583,323.112 68.2583,333.363C 68.2583,343.613 59.9487,351.923 49.6982,351.923C 39.4478,351.923 31.1382,343.613 31.1382,333.363C 31.1382,323.112 39.4479,314.803 49.6982,314.803 Z "/>
		<path fill="#476088" fill-opacity="1" stroke-width="0.2" stroke-linejoin="round" d="M 67.7662,290.832C 71.5992,294.798 81.3102,303.309 91.0168,311.415C 105.417,323.788 110.752,328.11 123.124,336.588C 128.001,340.066 132.912,343.288 137.899,346.307C 163.914,367.225 196.97,379.743 232.95,379.743C 243.903,379.743 254.585,378.583 264.88,376.379C 261.138,379.096 256.646,381.895 250.153,384.913C 239.77,389.74 224.269,395.126 207.479,398.219C 190.688,401.312 172.609,402.112 155.41,400.912C 138.211,399.712 121.892,396.512 107.093,392.672C 92.2935,388.833 79.0142,384.353 64.0542,377.419C 52.1868,371.919 39.2622,364.875 30.2854,359.404C 47.2925,365.317 64.0115,363.283 73.5774,352.489C 86.8411,337.522 63.9333,286.866 67.7662,290.832 Z "/>
	</g>
	<g>
		<path fill="#FFC562" fill-opacity="1" stroke-width="0.2" stroke-linejoin="round" d="M 45.9996,152.239C 52.9243,159.797 52.4114,171.538 44.8538,178.462C 37.2961,185.387 25.5558,184.874 18.631,177.316C 11.7062,169.759 12.2191,158.018 19.7769,151.093C 27.3345,144.169 39.0748,144.682 45.9996,152.239 Z "/>
		<path fill="#FFC562" fill-opacity="1" stroke-width="0.2" stroke-linejoin="round" d="M 75.8789,149.368C 75.5439,154.873 75.8296,167.782 76.4099,180.416C 77.0153,199.392 77.4332,206.244 79.5397,221.094C 80.0123,224.937 80.5729,228.717 81.2192,232.454C 82.6697,282.185 108.039,325.917 146.223,352.544C 141.628,351.622 136.463,350.2 129.727,347.4C 119.153,343.005 104.71,335.214 91.0869,324.924C 77.4634,314.634 64.6602,301.845 53.9258,288.354C 43.1914,274.862 34.5259,260.668 27.3591,247.163C 20.1924,233.657 14.5244,220.84 9.52991,205.126C 5.56799,192.661 2.03003,178.373 0,168.058C 7.12939,184.592 19.9238,195.544 34.345,195.305C 54.3401,194.974 76.2139,143.862 75.8789,149.368 Z "/>
	</g>
	<g>
		<path fill="#FF6D74" fill-opacity="1" stroke-width="0.2" stroke-linejoin="round" d="M 160.204,38.2489C 159.422,48.4693 150.503,56.1215 140.283,55.3399C 130.062,54.5585 122.41,45.6396 123.192,35.419C 123.973,25.1983 132.892,17.5464 143.113,18.3278C 153.333,19.1093 160.985,28.0284 160.204,38.2489 Z "/>
		<path fill="#FF6D74" fill-opacity="1" stroke-width="0.2" stroke-linejoin="round" d="M 182.727,58.0915C 178.48,61.611 169.254,70.6449 160.431,79.7051C 146.996,93.1198 142.28,98.1099 132.883,109.799C 128.484,115.068 124.416,120.406 120.596,125.872C 96.0898,152.83 81.1534,188.644 81.1534,227.946C 81.1534,234.839 81.6129,241.625 82.5029,248.275C 80.0457,244.303 77.564,239.573 75.0146,232.775C 70.9938,222.054 66.8049,206.187 65.001,189.21C 63.197,172.233 63.7776,154.146 66.2853,137.088C 68.793,120.031 73.2277,104.003 78.1846,89.5392C 83.1416,75.0758 88.6206,62.1768 96.6743,47.789C 103.063,36.3755 111.072,24.0254 117.212,15.4921C 110.019,31.9987 110.773,48.8242 120.806,59.1852C 134.718,73.5512 186.974,54.5722 182.727,58.0915 Z "/>
	</g>
	<g>
		<path fill="#61A8E8" fill-opacity="1" stroke-width="0.2" stroke-linejoin="round" d="M 316.228,56.2204C 308.177,62.5653 296.507,61.1826 290.162,53.132C 283.817,45.0815 285.2,33.4115 293.25,27.0666C 301.301,20.7216 312.971,22.1042 319.316,30.1548C 325.661,38.2055 324.278,49.8755 316.228,56.2204 Z "/>
		<path fill="#61A8E8" fill-opacity="1" stroke-width="0.2" stroke-linejoin="round" d="M 121.367,116.063C 126.534,105.845 135.375,92.0191 146.647,79.1969C 157.92,66.3745 171.624,54.5553 185.874,44.8516C 200.125,35.1479 214.923,27.5592 228.923,21.4145C 242.923,15.2696 256.126,10.568 272.167,6.75333C 284.892,3.7272 299.403,1.25919 309.84,3.05176e-005C 292.823,5.88297 268.234,22.023 268.594,44.9696C 271.143,66.7018 306.404,85.9066 328.343,109.861C 302.276,88.7769 269.088,76.149 232.95,76.149C 185.28,76.149 142.741,98.1234 114.912,132.496C 116.177,127.889 117.986,122.748 121.367,116.063 Z "/>
	</g>
	<path fill="#16A086" fill-opacity="1" stroke-width="0.2" stroke-linejoin="round" d="M 232.27,204.902C 232.978,206.397 233.895,207.74 234.597,208.657C 235.072,209.276 235.45,209.7 235.752,209.974C 234.89,216.178 234.558,222.648 234.491,228.46C 234.451,231.975 234.508,235.25 234.627,238.404C 233.296,238.418 231.968,238.407 230.648,238.304C 228.851,238.163 227.071,237.851 225.055,237.211C 223.041,236.57 220.791,235.602 218.839,234.602C 216.886,233.602 215.23,232.571 214.184,231.931L 212.262,230.791C 213.848,232.634 215.433,234.477 217.038,235.945C 218.643,237.414 220.268,238.507 221.88,239.338C 223.492,240.169 225.093,240.737 226.905,241.175C 228.717,241.612 230.74,241.918 232.361,242.056L 234.798,242.158L 235.179,248.267C 235.616,254.547 236.158,260.858 236.699,267.169C 236.095,267.044 235.491,266.919 232.69,266.075C 229.889,265.231 224.89,263.67 220.391,261.327C 215.893,258.983 211.894,255.859 209.207,252.641C 206.52,249.423 205.146,246.112 204.458,242.238C 203.771,238.364 203.771,233.928 204.458,229.429C 205.146,224.93 206.52,220.369 209.207,214.527C 211.894,208.685 215.893,201.562 221.141,193.876C 226.39,186.191 232.888,177.943 239.152,170.664C 245.416,163.384 251.446,157.074 254.82,153.746C 258.194,150.419 258.912,150.076 259.928,153.304C 260.943,156.532 262.255,163.332 263.005,172.449C 263.755,181.565 263.942,192.999 263.364,204.789C 262.786,216.579 261.442,228.725 259.708,241.156C 257.974,253.586 255.849,266.301 254.6,278.329C 253.35,290.357 252.975,301.698 252.6,313.039L 252.559,336.493L 292.629,336.493L 292.629,280.563L 375.95,280.563C 379.852,270.003 382.799,258.89 384.27,247.374L 315.031,247.371L 292.541,247.371L 292.541,118.881L 248.114,118.881L 148.591,248.655L 149.468,254.537C 150.769,263.264 152.07,271.99 156.679,276.354C 161.288,280.717 169.206,280.717 177.123,280.717L 245.561,280.717C 245.215,274.049 244.656,268.297 243.903,262.412L 242.426,251.579L 243.004,250.838C 243.644,249.994 244.394,248.932 245.283,247.531C 246.173,246.13 247.203,244.39 248.092,242.8C 248.98,241.211 249.727,239.771 250.228,238.532C 250.728,237.293 250.982,236.255 251.236,235.217L 249.494,237.56L 247.026,240.903L 243.988,245.222L 241.955,247.993C 241.645,245.534 241.361,243.045 241.133,240.522C 240.77,236.511 240.546,232.413 240.454,228.531L 241.093,227.856C 241.842,226.97 242.759,225.617 244.383,223.326C 246.008,221.035 248.341,217.806 249.83,215.526C 251.319,213.245 251.965,211.912 252.428,210.855C 252.891,209.798 253.173,209.017 253.3,208.552C 253.428,208.088 253.402,207.939 253.149,208.261C 252.897,208.582 252.418,209.374 251.491,210.519C 250.564,211.665 249.189,213.164 247.711,214.924C 246.232,216.684 244.649,218.704 243.295,220.392L 240.405,223.91L 240.51,218.929C 240.76,212.775 241.448,208.338 242.51,203.246C 243.572,198.154 245.009,192.405 246.259,187.594L 249.297,175.996C 250.023,173.082 250.414,171.13 250.804,169.177C 248.102,174.223 245.4,179.268 242.861,185.165C 240.323,191.062 237.949,197.81 236.511,205.34L 236.401,205.93C 235.768,205.028 235.138,204.059 234.52,202.84C 233.676,201.179 232.854,199.055 232.156,197.149L 230.313,191.87C 230.281,193.234 230.25,194.598 230.292,195.972C 230.333,197.347 230.448,198.732 230.755,200.247C 231.062,201.763 231.562,203.408 232.27,204.902 Z "/>
	<path fill="#16A086" fill-opacity="1" stroke-width="0.2" stroke-linejoin="round" d="M 388.715,229.343C 388.715,301.443 336.843,361.631 267.793,375.792C 334.835,360.043 384.748,299.841 384.748,227.98C 384.748,181.278 363.667,139.501 330.504,111.649C 365.948,139.039 388.715,181.577 388.715,229.343 Z "/>
</svg>
